<svg version="1.1" xmlns="http://www.w3.org/2000/svg" xmlns:xlink="http://www.w3.org/1999/xlink" x="0px" y="0px"
    viewBox="0 0 226.5 141.6" style="enable-background:new 0 0 226.5 141.6;" xml:space="preserve">
    <style>
        .st0, .st1 {
        fill: none;
        stroke-width: 0.2;
        }

        .st1 {
            stroke:#000000;
        }
        .st0 {
            stroke:#C0C0C0;
        }
    </style>
    <line class="st0" x1="66.3" y1="85.7" x2="66.9" y2="87.1"/>
    <line class="st0" x1="65.9" y1="87.5" x2="66.6" y2="88.9"/>
    <line class="st0" x1="61.6" y1="88.6" x2="72.8" y2="82.9"/>
    <line class="st0" x1="61.8" y1="88.9" x2="72.9" y2="83.2"/>
    <line class="st0" x1="61.8" y1="89.2" x2="73" y2="83.5"/>
    <line class="st0" x1="61.7" y1="89.3" x2="72.8" y2="83.7"/>
    <line class="st0" x1="61.5" y1="89.2" x2="72.6" y2="83.5"/>
    <line class="st0" x1="61.3" y1="88.9" x2="72.4" y2="83.2"/>
    <line class="st0" x1="61.3" y1="88.6" x2="72.4" y2="82.9"/>
    <line class="st0" x1="61.4" y1="88.5" x2="72.5" y2="82.8"/>
    <path class="st0" d="M72.7,82.9c0.2,0.1,0.3,0.4,0.3,0.6s-0.1,0.3-0.3,0.2c-0.2-0.1-0.3-0.4-0.3-0.6S72.5,82.8,72.7,82.9L72.7,82.9
        z"/>
    <path class="st0" d="M61.5,88.5c0.2,0.1,0.3,0.4,0.3,0.6c0,0.2-0.1,0.3-0.3,0.2c-0.2-0.1-0.3-0.4-0.3-0.6S61.4,88.4,61.5,88.5
        L61.5,88.5z"/>
    <line class="st0" x1="61.6" y1="90.5" x2="72.8" y2="84.5"/>
    <line class="st0" x1="61.7" y1="90.8" x2="72.9" y2="84.8"/>
    <line class="st0" x1="61.6" y1="91" x2="72.9" y2="85"/>
    <line class="st0" x1="61.4" y1="91" x2="72.7" y2="85"/>
    <line class="st0" x1="61.2" y1="90.8" x2="72.4" y2="84.8"/>
    <line class="st0" x1="61.1" y1="90.5" x2="72.3" y2="84.5"/>
    <line class="st0" x1="61.2" y1="90.2" x2="72.4" y2="84.2"/>
    <line class="st0" x1="61.4" y1="90.3" x2="72.6" y2="84.3"/>
    <path class="st0" d="M72.6,84.3c0.2,0.1,0.3,0.4,0.3,0.6s-0.1,0.3-0.3,0.2c-0.2-0.1-0.3-0.4-0.3-0.6C72.3,84.2,72.5,84.2,72.6,84.3
        L72.6,84.3z"/>
    <path class="st0" d="M61.4,90.3c0.2,0.1,0.3,0.4,0.3,0.6c0,0.2-0.1,0.3-0.3,0.2c-0.2-0.1-0.3-0.4-0.3-0.6S61.2,90.2,61.4,90.3
        L61.4,90.3z"/>
    <line class="st0" x1="66" y1="90.5" x2="65.2" y2="90.9"/>
    <line class="st0" x1="66.2" y1="90.7" x2="65.4" y2="91.2"/>
    <line class="st0" x1="66.4" y1="90.8" x2="65.6" y2="91.2"/>
    <line class="st0" x1="66.5" y1="90.6" x2="65.7" y2="91"/>
    <line class="st0" x1="66.4" y1="90.2" x2="65.6" y2="90.7"/>
    <line class="st0" x1="66.2" y1="90" x2="65.4" y2="90.4"/>
    <line class="st0" x1="66" y1="90" x2="65.2" y2="90.4"/>
    <line class="st0" x1="65.9" y1="90.2" x2="65.1" y2="90.6"/>
    <path class="st0" d="M65.4,90.4c-0.2-0.1-0.3,0-0.3,0.2c0,0.2,0.1,0.5,0.3,0.6s0.3,0,0.3-0.2S65.5,90.5,65.4,90.4L65.4,90.4z"/>
    <path class="st0" d="M66.2,90c0.2,0.1,0.3,0.4,0.3,0.6c0,0.2-0.1,0.3-0.3,0.2c-0.2-0.1-0.3-0.4-0.3-0.6S66,89.9,66.2,90L66.2,90z"
        />
    <line class="st0" x1="66.2" y1="91.6" x2="63.9" y2="92.2"/>
    <line class="st0" x1="66.2" y1="90.8" x2="63.9" y2="91.8"/>
    <line class="st0" x1="65.7" y1="90" x2="63.6" y2="91.2"/>
    <line class="st0" x1="65.1" y1="89.7" x2="63.3" y2="91"/>
    <line class="st0" x1="64.7" y1="90" x2="63" y2="91.2"/>
    <line class="st0" x1="64.7" y1="90.8" x2="63" y2="91.7"/>
    <line class="st0" x1="65.2" y1="91.5" x2="63.3" y2="92.2"/>
    <line class="st0" x1="65.8" y1="91.9" x2="63.7" y2="92.4"/>
    <path class="st0" d="M63.5,91.1c0.3,0.2,0.5,0.6,0.5,0.9c0,0.3-0.2,0.5-0.5,0.3c-0.3-0.2-0.5-0.6-0.5-0.9S63.2,90.9,63.5,91.1
        L63.5,91.1z"/>
    <path class="st0" d="M65.4,89.8c-0.4-0.3-0.8-0.1-0.8,0.5s0.4,1.2,0.8,1.5s0.8,0.1,0.8-0.5C66.2,90.8,65.9,90.1,65.4,89.8
        L65.4,89.8z"/>
    <line class="st0" x1="71.5" y1="85.3" x2="71.1" y2="85.1"/>
    <line class="st0" x1="71.1" y1="85.8" x2="70.6" y2="85.5"/>
    <line class="st0" x1="70.6" y1="85.8" x2="70.2" y2="85.6"/>
    <line class="st0" x1="70.4" y1="85.4" x2="70" y2="85.2"/>
    <line class="st0" x1="70.6" y1="84.8" x2="70.2" y2="84.5"/>
    <line class="st0" x1="71.1" y1="84.3" x2="70.6" y2="84.1"/>
    <line class="st0" x1="71.5" y1="84.3" x2="71.1" y2="84"/>
    <line class="st0" x1="71.7" y1="84.7" x2="71.3" y2="84.4"/>
    <path class="st0" d="M70.6,85.5c-0.4,0.2-0.6,0-0.6-0.4c0-0.4,0.3-0.9,0.6-1.1c0.4-0.2,0.6,0,0.6,0.4C71.3,84.8,71,85.3,70.6,85.5
        L70.6,85.5z"/>
    <path class="st0" d="M71.1,85.8c0.4-0.2,0.6-0.7,0.6-1.1c0-0.4-0.3-0.6-0.6-0.4c-0.4,0.2-0.6,0.7-0.6,1.1
        C70.4,85.8,70.7,86,71.1,85.8L71.1,85.8z"/>
    <line class="st0" x1="71.1" y1="87.4" x2="70.7" y2="87.1"/>
    <line class="st0" x1="70.6" y1="87.9" x2="70.2" y2="87.6"/>
    <line class="st0" x1="70.2" y1="87.9" x2="69.8" y2="87.7"/>
    <line class="st0" x1="70" y1="87.5" x2="69.6" y2="87.2"/>
    <line class="st0" x1="70.2" y1="86.9" x2="69.8" y2="86.6"/>
    <line class="st0" x1="70.6" y1="86.4" x2="70.2" y2="86.1"/>
    <line class="st0" x1="71.1" y1="86.3" x2="70.7" y2="86.1"/>
    <line class="st0" x1="71.3" y1="86.8" x2="70.8" y2="86.5"/>
    <path class="st0" d="M70.2,87.6c-0.4,0.2-0.6,0-0.6-0.4c0-0.4,0.3-0.9,0.6-1.1c0.4-0.2,0.6,0,0.6,0.4
        C70.8,86.9,70.6,87.4,70.2,87.6L70.2,87.6z"/>
    <path class="st0" d="M70.6,87.9c0.4-0.2,0.6-0.7,0.6-1.1c0-0.4-0.3-0.6-0.6-0.4c-0.4,0.2-0.6,0.7-0.6,1.1S70.3,88.1,70.6,87.9
        L70.6,87.9z"/>
    <path class="st0" d="M51.1,78.5c-0.4,0.2-0.7,0.8-0.7,1.2c0,0.4,0.3,0.6,0.7,0.4c0.4-0.2,0.7-0.8,0.7-1.2
        C51.8,78.4,51.5,78.3,51.1,78.5L51.1,78.5z"/>
    <path class="st0" d="M52.6,77.6c-0.4,0.2-0.7,0.8-0.7,1.2c0,0.4,0.3,0.6,0.7,0.4c0.4-0.2,0.7-0.8,0.7-1.2
        C53.3,77.6,53,77.4,52.6,77.6L52.6,77.6z"/>
    <path class="st0" d="M79,81.8c-0.4,0.2-0.7,0.8-0.7,1.2c0,0.4,0.3,0.6,0.7,0.4c0.4-0.2,0.7-0.8,0.7-1.2
        C79.7,81.8,79.4,81.6,79,81.8L79,81.8z"/>
    <path class="st0" d="M80.6,80.9c-0.4,0.2-0.7,0.8-0.7,1.2c0,0.4,0.3,0.6,0.7,0.4c0.4-0.2,0.7-0.8,0.7-1.2
        C81.3,80.8,81,80.7,80.6,80.9L80.6,80.9z"/>
    <path class="st0" d="M100.4,49.8c-0.4,0.2-0.7,0.8-0.7,1.2s0.3,0.6,0.7,0.4c0.4-0.2,0.7-0.8,0.7-1.2S100.7,49.6,100.4,49.8
        L100.4,49.8z"/>
    <path class="st0" d="M101.9,48.9c-0.4,0.2-0.7,0.8-0.7,1.2s0.3,0.6,0.7,0.4c0.4-0.2,0.7-0.8,0.7-1.2S102.3,48.7,101.9,48.9
        L101.9,48.9z"/>
    <path class="st0" d="M101.2,68.8c-0.4,0.2-0.7,0.8-0.7,1.2c0,0.4,0.3,0.6,0.7,0.4c0.4-0.2,0.7-0.8,0.7-1.2
        C101.9,68.7,101.6,68.5,101.2,68.8L101.2,68.8z"/>
    <polygon class="st0" points="94.3,23.8 96.3,22.7 96.3,24.9 94.3,26.1 	"/>
    <path class="st0" d="M58.9,105c0,0.4-0.3,0.6-0.7,0.4c-0.4-0.2-0.7-0.8-0.7-1.2s0.3-0.6,0.7-0.4S58.9,104.6,58.9,105L58.9,105z"/>
    <path class="st0" d="M78,74.6c0,0.4-0.3,0.6-0.7,0.4s-0.7-0.8-0.7-1.2c0-0.4,0.3-0.6,0.7-0.4C77.7,73.6,78,74.2,78,74.6L78,74.6z"
        />
    <line class="st0" x1="125.3" y1="14.6" x2="128.4" y2="12.9"/>
    <line class="st0" x1="125.3" y1="14.6" x2="125.3" y2="19.5"/>
    <line class="st0" x1="128.4" y1="17.8" x2="125.3" y2="19.5"/>
    <line class="st0" x1="128.4" y1="12.9" x2="128.4" y2="17.8"/>
    <line class="st0" x1="128.4" y1="12.9" x2="124.6" y2="10.7"/>
    <line class="st0" x1="124.6" y1="15.6" x2="128.4" y2="17.8"/>
    <line class="st0" x1="124.6" y1="10.7" x2="124.6" y2="15.6"/>
    <line class="st0" x1="124.6" y1="10.7" x2="121.6" y2="12.5"/>
    <line class="st0" x1="121.6" y1="17.4" x2="124.6" y2="15.6"/>
    <line class="st0" x1="121.6" y1="12.5" x2="121.6" y2="17.4"/>
    <line class="st0" x1="121.6" y1="12.5" x2="125.3" y2="14.6"/>
    <line class="st0" x1="125.3" y1="19.5" x2="121.6" y2="17.4"/>
    <line class="st0" x1="127.3" y1="19.1" x2="127.3" y2="12.6"/>
    <line class="st0" x1="127.3" y1="19.1" x2="128.5" y2="18.4"/>
    <line class="st0" x1="128.5" y1="11.9" x2="128.5" y2="18.4"/>
    <line class="st0" x1="127.3" y1="12.6" x2="128.5" y2="11.9"/>
    <line class="st0" x1="127.3" y1="12.6" x2="123.4" y2="10.4"/>
    <line class="st0" x1="124.6" y1="9.7" x2="128.5" y2="11.9"/>
    <line class="st0" x1="123.4" y1="10.4" x2="124.6" y2="9.7"/>
    <line class="st0" x1="123.4" y1="10.4" x2="123.4" y2="16.9"/>
    <line class="st0" x1="124.6" y1="16.2" x2="124.6" y2="9.7"/>
    <line class="st0" x1="123.4" y1="16.9" x2="124.6" y2="16.2"/>
    <line class="st0" x1="123.4" y1="16.9" x2="127.3" y2="19.1"/>
    <line class="st0" x1="128.5" y1="18.4" x2="124.6" y2="16.2"/>
    <line class="st0" x1="117.8" y1="4.9" x2="117.6" y2="3.8"/>
    <line class="st0" x1="117.6" y1="4.7" x2="117.4" y2="3.6"/>
    <line class="st0" x1="117.3" y1="4.7" x2="117.1" y2="3.5"/>
    <line class="st0" x1="117" y1="4.9" x2="116.8" y2="3.7"/>
    <line class="st0" x1="116.9" y1="5.3" x2="116.7" y2="3.9"/>
    <line class="st0" x1="117.1" y1="5.5" x2="116.9" y2="4.1"/>
    <line class="st0" x1="117.4" y1="5.5" x2="117.2" y2="4.2"/>
    <line class="st0" x1="117.7" y1="5.2" x2="117.5" y2="4"/>
    <line class="st0" x1="118.6" y1="5.5" x2="116.9" y2="5.3"/>
    <line class="st0" x1="118.8" y1="5.7" x2="117.1" y2="5.5"/>
    <line class="st0" x1="119.1" y1="5.7" x2="117.4" y2="5.5"/>
    <line class="st0" x1="119.3" y1="5.4" x2="117.7" y2="5.2"/>
    <line class="st0" x1="119.3" y1="5.1" x2="117.8" y2="4.9"/>
    <line class="st0" x1="119.1" y1="4.9" x2="117.6" y2="4.7"/>
    <line class="st0" x1="118.9" y1="4.9" x2="117.3" y2="4.7"/>
    <line class="st0" x1="118.6" y1="5.2" x2="117" y2="4.9"/>
    <line class="st0" x1="120.2" y1="5.6" x2="119.3" y2="5.1"/>
    <line class="st0" x1="120" y1="5.4" x2="119.1" y2="4.9"/>
    <line class="st0" x1="119.7" y1="5.4" x2="118.9" y2="4.9"/>
    <line class="st0" x1="119.4" y1="5.6" x2="118.6" y2="5.2"/>
    <line class="st0" x1="119.3" y1="5.9" x2="118.6" y2="5.5"/>
    <line class="st0" x1="119.5" y1="6.1" x2="118.8" y2="5.7"/>
    <line class="st0" x1="119.8" y1="6.1" x2="119.1" y2="5.7"/>
    <line class="st0" x1="120.1" y1="5.9" x2="119.3" y2="5.4"/>
    <line class="st0" x1="120" y1="62.7" x2="119.3" y2="5.9"/>
    <line class="st0" x1="120.1" y1="62.9" x2="119.5" y2="6.1"/>
    <line class="st0" x1="120.5" y1="63" x2="119.8" y2="6.1"/>
    <line class="st0" x1="120.8" y1="62.9" x2="120.1" y2="5.9"/>
    <line class="st0" x1="120.8" y1="62.7" x2="120.2" y2="5.6"/>
    <line class="st0" x1="120.7" y1="62.6" x2="120" y2="5.4"/>
    <line class="st0" x1="120.3" y1="62.5" x2="119.7" y2="5.4"/>
    <line class="st0" x1="120" y1="62.6" x2="119.4" y2="5.6"/>
    <line class="st0" x1="120.4" y1="64.8" x2="120.8" y2="62.7"/>
    <line class="st0" x1="120.3" y1="64.6" x2="120.7" y2="62.6"/>
    <line class="st0" x1="119.9" y1="64.4" x2="120.3" y2="62.5"/>
    <line class="st0" x1="119.7" y1="64.3" x2="120" y2="62.6"/>
    <line class="st0" x1="119.6" y1="64.4" x2="120" y2="62.7"/>
    <line class="st0" x1="119.8" y1="64.5" x2="120.1" y2="62.9"/>
    <line class="st0" x1="120.1" y1="64.7" x2="120.5" y2="63"/>
    <line class="st0" x1="120.4" y1="64.8" x2="120.8" y2="62.9"/>
    <line class="st0" x1="118" y1="66" x2="119.6" y2="64.4"/>
    <line class="st0" x1="118.2" y1="66.2" x2="119.8" y2="64.5"/>
    <line class="st0" x1="118.4" y1="66.4" x2="120.1" y2="64.7"/>
    <line class="st0" x1="118.6" y1="66.5" x2="120.4" y2="64.8"/>
    <line class="st0" x1="118.6" y1="66.5" x2="120.4" y2="64.8"/>
    <line class="st0" x1="118.4" y1="66.4" x2="120.3" y2="64.6"/>
    <line class="st0" x1="118.2" y1="66.2" x2="119.9" y2="64.4"/>
    <line class="st0" x1="118" y1="66" x2="119.7" y2="64.3"/>
    <line class="st0" x1="118" y1="67.6" x2="118.6" y2="66.5"/>
    <line class="st0" x1="117.8" y1="67.5" x2="118.4" y2="66.4"/>
    <line class="st0" x1="117.5" y1="67.4" x2="118.2" y2="66.2"/>
    <line class="st0" x1="117.2" y1="67.3" x2="118" y2="66"/>
    <line class="st0" x1="117.2" y1="67.4" x2="118" y2="66"/>
    <line class="st0" x1="117.3" y1="67.6" x2="118.2" y2="66.2"/>
    <line class="st0" x1="117.7" y1="67.7" x2="118.4" y2="66.4"/>
    <line class="st0" x1="117.9" y1="67.7" x2="118.6" y2="66.5"/>
    <line class="st0" x1="117.1" y1="68.1" x2="117.2" y2="67.4"/>
    <line class="st0" x1="117.3" y1="68.3" x2="117.3" y2="67.6"/>
    <line class="st0" x1="117.6" y1="68.3" x2="117.7" y2="67.7"/>
    <line class="st0" x1="117.9" y1="68.2" x2="117.9" y2="67.7"/>
    <line class="st0" x1="118" y1="68" x2="118" y2="67.6"/>
    <line class="st0" x1="117.8" y1="67.8" x2="117.8" y2="67.5"/>
    <line class="st0" x1="117.5" y1="67.8" x2="117.5" y2="67.4"/>
    <line class="st0" x1="117.2" y1="67.9" x2="117.2" y2="67.3"/>
    <path class="st0" d="M116.8,3.7c-0.1,0.2-0.1,0.3,0.1,0.4c0.2,0.1,0.5,0,0.6-0.1s0.1-0.3-0.1-0.4S116.9,3.5,116.8,3.7L116.8,3.7z"
        />
    <path class="st0" d="M117.1,4.9c-0.2,0.2-0.2,0.5,0,0.6c0.2,0.1,0.4,0.1,0.6-0.1"/>
    <path class="st0" d="M117.6,5.3c0.2-0.2,0.2-0.5,0-0.6c-0.2-0.1-0.4-0.1-0.6,0.1"/>
    <path class="st0" d="M118.7,5c-0.2,0.2-0.2,0.5,0,0.6c0.1,0.2,0.4,0.1,0.5,0"/>
    <path class="st0" d="M119.2,5.6c0.2-0.2,0.2-0.5,0-0.6c-0.1-0.2-0.4-0.1-0.5,0"/>
    <path class="st0" d="M120.1,5.9c0.2-0.2,0.1-0.4,0-0.5c-0.2-0.1-0.5,0-0.6,0.2"/>
    <path class="st0" d="M119.4,5.6c-0.2,0.2-0.1,0.4,0,0.5c0.2,0.1,0.5,0,0.6-0.2"/>
    <path class="st0" d="M120.2,62.5c-0.2,0-0.3,0.2-0.2,0.3s0.4,0.2,0.6,0.2"/>
    <path class="st0" d="M120.6,63c0.2,0,0.3-0.2,0.2-0.3c-0.1-0.1-0.4-0.2-0.6-0.2"/>
    <path class="st0" d="M119.7,64.3c-0.2,0-0.2,0,0,0.1s0.4,0.3,0.6,0.3"/>
    <path class="st0" d="M120.3,64.8c0.2,0,0.2,0,0-0.1s-0.4-0.3-0.6-0.3"/>
    <path class="st0" d="M118,66.1C117.9,66,117.9,66,118,66.1c0.3,0.2,0.5,0.4,0.6,0.4"/>
    <path class="st0" d="M118.6,66.5C118.7,66.6,118.7,66.6,118.6,66.5c-0.3-0.2-0.5-0.4-0.6-0.4"/>
    <path class="st0" d="M117.4,67.3c-0.2,0-0.3,0.1-0.1,0.2c0.1,0.1,0.4,0.2,0.6,0.2"/>
    <path class="st0" d="M117.8,67.7c0.2,0,0.3-0.1,0.1-0.2c-0.1-0.1-0.4-0.2-0.6-0.2"/>
    <path class="st0" d="M117.8,67.9c-0.2-0.1-0.5-0.1-0.6,0s-0.2,0.3,0,0.4s0.5,0.1,0.6,0C118,68.1,118,68,117.8,67.9L117.8,67.9z"/>
    <line class="st0" x1="125.7" y1="11.8" x2="125.8" y2="13.5"/>
    <line class="st0" x1="125.3" y1="12" x2="125.5" y2="13.6"/>
    <line class="st0" x1="125.1" y1="12" x2="125.2" y2="13.5"/>
    <line class="st0" x1="125" y1="11.9" x2="125.1" y2="13.3"/>
    <line class="st0" x1="125.2" y1="11.7" x2="125.3" y2="13.1"/>
    <line class="st0" x1="125.5" y1="11.5" x2="125.7" y2="13.1"/>
    <line class="st0" x1="125.8" y1="11.5" x2="126" y2="13.2"/>
    <line class="st0" x1="125.9" y1="11.6" x2="126" y2="13.4"/>
    <line class="st0" x1="124.6" y1="11.3" x2="125.2" y2="11.7"/>
    <line class="st0" x1="124.7" y1="11" x2="125.5" y2="11.5"/>
    <line class="st0" x1="124.7" y1="10.8" x2="125.8" y2="11.5"/>
    <line class="st0" x1="124.6" y1="10.8" x2="125.9" y2="11.6"/>
    <line class="st0" x1="124.5" y1="11" x2="125.7" y2="11.8"/>
    <line class="st0" x1="124.3" y1="11.3" x2="125.3" y2="12"/>
    <line class="st0" x1="124.3" y1="11.5" x2="125.1" y2="12"/>
    <line class="st0" x1="124.4" y1="11.5" x2="125" y2="11.9"/>
    <line class="st0" x1="119.7" y1="9.5" x2="124.5" y2="11"/>
    <line class="st0" x1="119.7" y1="9.9" x2="124.3" y2="11.3"/>
    <line class="st0" x1="119.8" y1="10.1" x2="124.3" y2="11.5"/>
    <line class="st0" x1="120.1" y1="10.2" x2="124.4" y2="11.5"/>
    <line class="st0" x1="120.3" y1="9.9" x2="124.6" y2="11.3"/>
    <line class="st0" x1="120.3" y1="9.6" x2="124.7" y2="11"/>
    <line class="st0" x1="120.1" y1="9.3" x2="124.7" y2="10.8"/>
    <line class="st0" x1="119.9" y1="9.3" x2="124.6" y2="10.8"/>
    <line class="st0" x1="119.7" y1="10.1" x2="120.3" y2="9.9"/>
    <line class="st0" x1="119.6" y1="9.8" x2="120.3" y2="9.6"/>
    <line class="st0" x1="119.3" y1="9.6" x2="120.1" y2="9.3"/>
    <line class="st0" x1="119" y1="9.6" x2="119.9" y2="9.3"/>
    <line class="st0" x1="118.8" y1="9.8" x2="119.7" y2="9.5"/>
    <line class="st0" x1="118.9" y1="10.1" x2="119.7" y2="9.9"/>
    <line class="st0" x1="119.2" y1="10.3" x2="119.8" y2="10.1"/>
    <line class="st0" x1="119.5" y1="10.3" x2="120.1" y2="10.2"/>
    <line class="st0" x1="118.6" y1="10.4" x2="118.8" y2="9.8"/>
    <line class="st0" x1="118.7" y1="10.7" x2="118.9" y2="10.1"/>
    <line class="st0" x1="119" y1="10.8" x2="119.2" y2="10.3"/>
    <line class="st0" x1="119.4" y1="10.8" x2="119.5" y2="10.3"/>
    <line class="st0" x1="119.5" y1="10.6" x2="119.7" y2="10.1"/>
    <line class="st0" x1="119.4" y1="10.3" x2="119.6" y2="9.8"/>
    <line class="st0" x1="119.1" y1="10.2" x2="119.3" y2="9.6"/>
    <line class="st0" x1="118.8" y1="10.2" x2="119" y2="9.6"/>
    <line class="st0" x1="120" y1="51.5" x2="119.5" y2="10.6"/>
    <line class="st0" x1="119.9" y1="51.3" x2="119.4" y2="10.3"/>
    <line class="st0" x1="119.6" y1="51.2" x2="119.1" y2="10.2"/>
    <line class="st0" x1="119.3" y1="51.2" x2="118.8" y2="10.2"/>
    <line class="st0" x1="119.1" y1="51.4" x2="118.6" y2="10.4"/>
    <line class="st0" x1="119.3" y1="51.6" x2="118.7" y2="10.7"/>
    <line class="st0" x1="119.6" y1="51.7" x2="119" y2="10.8"/>
    <line class="st0" x1="119.9" y1="51.6" x2="119.4" y2="10.8"/>
    <path class="st0" d="M126,13.4c-0.1,0.1-0.3,0.2-0.5,0.2c-0.2,0-0.4-0.1-0.3-0.3c0.1-0.1,0.3-0.2,0.5-0.2
        C125.9,13.1,126.1,13.2,126,13.4L126,13.4z"/>
    <path class="st0" d="M125.6,11.5c0.2-0.1,0.3,0,0.3,0.1s-0.3,0.3-0.5,0.4"/>
    <path class="st0" d="M125.3,12c-0.2,0.1-0.3,0-0.3-0.1s0.3-0.3,0.5-0.4"/>
    <path class="st0" d="M124.7,10.8c0-0.1-0.1-0.1-0.2,0.1c-0.1,0.2-0.2,0.4-0.2,0.6"/>
    <path class="st0" d="M124.3,11.5c0,0.1,0.1,0.1,0.2-0.1c0.1-0.2,0.2-0.4,0.2-0.6"/>
    <path class="st0" d="M120.2,9.4c-0.1-0.2-0.3-0.2-0.4,0c-0.1,0.2-0.1,0.5,0,0.7"/>
    <path class="st0" d="M119.8,10c0.1,0.2,0.3,0.2,0.4,0c0.1-0.2,0.1-0.5,0-0.7"/>
    <path class="st0" d="M119.6,9.7c-0.2-0.2-0.4-0.3-0.6-0.2s-0.2,0.4,0,0.6"/>
    <path class="st0" d="M118.9,10.1c0.2,0.2,0.4,0.3,0.6,0.2c0.2-0.1,0.2-0.4,0-0.6"/>
    <path class="st0" d="M119.4,10.3c-0.2-0.1-0.5-0.2-0.6-0.1c-0.2,0.1-0.2,0.3,0,0.4"/>
    <path class="st0" d="M118.7,10.7c0.2,0.1,0.5,0.2,0.6,0.1c0.2-0.1,0.2-0.3,0-0.4"/>
    <path class="st0" d="M119.9,51.2c-0.2-0.1-0.5-0.1-0.6,0c-0.2,0.1-0.2,0.3,0,0.4c0.2,0.1,0.5,0.1,0.6,0
        C120.1,51.5,120.1,51.4,119.9,51.2L119.9,51.2z"/>
    <line class="st0" x1="123.1" y1="10.7" x2="120" y2="8.8"/>
    <line class="st0" x1="123.3" y1="10.6" x2="119.9" y2="8.6"/>
    <line class="st0" x1="123.6" y1="10.4" x2="120.1" y2="8.3"/>
    <line class="st0" x1="123.9" y1="10.2" x2="120.3" y2="8.1"/>
    <line class="st0" x1="123.9" y1="10.2" x2="120.5" y2="8.1"/>
    <line class="st0" x1="123.7" y1="10.3" x2="120.6" y2="8.4"/>
    <line class="st0" x1="123.4" y1="10.5" x2="120.4" y2="8.7"/>
    <line class="st0" x1="123.1" y1="10.7" x2="120.2" y2="8.9"/>
    <line class="st0" x1="123.1" y1="12.2" x2="123.1" y2="10.7"/>
    <line class="st0" x1="123.3" y1="12.4" x2="123.3" y2="10.6"/>
    <line class="st0" x1="123.7" y1="12.4" x2="123.6" y2="10.4"/>
    <line class="st0" x1="123.9" y1="12.3" x2="123.9" y2="10.2"/>
    <line class="st0" x1="124" y1="12.1" x2="123.9" y2="10.2"/>
    <line class="st0" x1="123.8" y1="11.9" x2="123.7" y2="10.3"/>
    <line class="st0" x1="123.4" y1="11.9" x2="123.4" y2="10.5"/>
    <line class="st0" x1="123.2" y1="12" x2="123.1" y2="10.7"/>
    <path class="st0" d="M120.2,8.9c-0.2,0-0.3-0.1-0.2-0.3c0-0.2,0.2-0.4,0.4-0.5c0.2,0,0.3,0.1,0.2,0.3S120.4,8.8,120.2,8.9
        L120.2,8.9z"/>
    <path class="st0" d="M123.8,10.3c-0.2,0.1-0.4,0.3-0.6,0.4c-0.2,0.1-0.2,0.1,0,0C123.4,10.6,123.6,10.4,123.8,10.3
        C124,10.2,124,10.2,123.8,10.3L123.8,10.3z"/>
    <path class="st0" d="M123.9,12c-0.2-0.1-0.5-0.1-0.6,0c-0.2,0.1-0.2,0.3,0,0.4c0.2,0.1,0.5,0.1,0.6,0
        C124.1,12.3,124.1,12.1,123.9,12L123.9,12z"/>
    <polygon class="st0" points="64.5,96.6 61.9,94.8 61.8,88.6 64.5,90.3 	"/>
    <line class="st0" x1="157.7" y1="70.8" x2="157.8" y2="85.3"/>
    <line class="st0" x1="157.7" y1="70.8" x2="155.6" y2="72.1"/>
    <line class="st0" x1="155.6" y1="86.5" x2="155.6" y2="72.1"/>
    <line class="st0" x1="157.8" y1="85.3" x2="155.6" y2="86.5"/>
    <line class="st0" x1="157.8" y1="85.3" x2="136.4" y2="73"/>
    <line class="st0" x1="134.3" y1="74.2" x2="155.6" y2="86.5"/>
    <line class="st0" x1="136.4" y1="73" x2="134.3" y2="74.2"/>
    <line class="st0" x1="136.4" y1="73" x2="136.4" y2="58.6"/>
    <line class="st0" x1="134.3" y1="59.8" x2="134.3" y2="74.2"/>
    <line class="st0" x1="136.4" y1="58.6" x2="134.3" y2="59.8"/>
    <line class="st0" x1="136.4" y1="58.6" x2="157.7" y2="70.8"/>
    <line class="st0" x1="155.6" y1="72.1" x2="134.3" y2="59.8"/>
    <line class="st0" x1="62.4" y1="77.7" x2="117.6" y2="45.9"/>
    <line class="st0" x1="63.4" y1="50.5" x2="118.5" y2="18.6"/>
    <line class="st0" x1="82.6" y1="78" x2="50.6" y2="59.7"/>
    <line class="st0" x1="49.5" y1="85.3" x2="83.6" y2="104.9"/>
    <line class="st0" x1="173.1" y1="80.5" x2="109.2" y2="117.4"/>
    <line class="st0" x1="173.4" y1="53.5" x2="109.9" y2="90.2"/>
    <line class="st1" x1="49.1" y1="42.3" x2="49" y2="106.6"/>
    <line class="st1" x1="55" y1="38.9" x2="54.9" y2="103.3"/>
    <line class="st1" x1="58.5" y1="40.9" x2="58.4" y2="105.3"/>
    <line class="st1" x1="65" y1="37" x2="65.1" y2="101.4"/>
    <line class="st1" x1="61.5" y1="35.1" x2="61.8" y2="99.3"/>
    <line class="st1" x1="119.5" y1="1.6" x2="119.7" y2="65.8"/>
    <path class="st1" d="M84.3,126.9c0-12.6-0.1-25.1-0.1-37.7c0-1.1,0-2.2,0-3.2c0-1.2,0.2-2.4,0.5-3.4c0.6-1.5,1.9-2.5,3.5-2.6
        c1.2-0.1,2.6,0.3,4,0.9c3.4,1.4,6.9,3.7,10.3,5.9c1,0.7,2.1,1.3,3.1,2"/>
    <line class="st1" x1="83.7" y1="89.4" x2="83.5" y2="89.5"/>
    <line class="st1" x1="83.7" y1="104.3" x2="83.5" y2="104.4"/>
    <line class="st1" x1="108.7" y1="50.4" x2="108.4" y2="50.2"/>
    <line class="st1" x1="108.7" y1="35.5" x2="108.4" y2="35.3"/>
    <line class="st1" x1="49.6" y1="69.7" x2="49.1" y2="69.7"/>
    <line class="st1" x1="55" y1="66.5" x2="54.9" y2="66.3"/>
    <line class="st1" x1="49.5" y1="84.5" x2="49" y2="84.5"/>
    <line class="st1" x1="54.9" y1="81.4" x2="54.9" y2="81.1"/>
    <line class="st1" x1="58.5" y1="68.6" x2="58.5" y2="68.3"/>
    <line class="st1" x1="58.4" y1="83.3" x2="58.4" y2="83.1"/>
    <line class="st1" x1="65.5" y1="79.3" x2="65" y2="79.3"/>
    <line class="st1" x1="62.1" y1="77.4" x2="61.7" y2="77.3"/>
    <line class="st1" x1="65.5" y1="64.4" x2="65" y2="64.5"/>
    <line class="st1" x1="62" y1="62.5" x2="61.7" y2="62.4"/>
    <line class="st1" x1="49.6" y1="69.7" x2="49.5" y2="84.5"/>
    <line class="st1" x1="54.9" y1="81.4" x2="55" y2="66.5"/>
    <line class="st1" x1="58.5" y1="68.6" x2="58.4" y2="83.3"/>
    <line class="st1" x1="65.5" y1="79.3" x2="65.5" y2="64.4"/>
    <line class="st1" x1="62" y1="62.5" x2="62.1" y2="77.4"/>
    <line class="st1" x1="105.6" y1="139.3" x2="105.6" y2="74.9"/>
    <line class="st1" x1="176.4" y1="98.4" x2="176.4" y2="34"/>
    <polyline class="st1" points="84.3,126.9 49,106.6 54.9,103.3 58.4,105.3 65.1,101.4 61.8,99.3 119.7,65.8 176.4,98.4 105.6,139.3 
            "/>
    <polyline class="st1" points="176.4,34 105.6,74.9 49.1,42.3 55,38.9 58.5,40.9 65,37 61.5,35.1 119.5,1.6 176.4,34 	"/>
    <polyline class="st1" points="157.5,30.2 136.5,18.6 136.7,54.1 157.7,65.8 157.5,30.2 	"/>
    <polyline class="st1" points="158.1,66 157.3,66.4 135.6,54.4 136.4,53.9 	"/>
    <polyline class="st1" points="55,66.5 58.5,68.6 65.5,64.4 62,62.5 108.7,35.5 108.7,50.4 62.1,77.4 65.5,79.3 58.4,83.3 
        54.9,81.4 49.5,84.5 83.7,104.3 83.7,89.4 49.6,69.7 55,66.5 	"/>
    <polyline class="st1" points="83.5,104.4 83.5,89.5 49.1,69.7 54.9,66.3 58.5,68.3 65,64.5 61.7,62.4 108.4,35.3 108.4,50.2 
        61.7,77.3 65,79.3 58.4,83.1 54.9,81.1 49,84.5 83.5,104.4 	"/>
</svg>