<svg version="1.1" xmlns="http://www.w3.org/2000/svg" xmlns:xlink="http://www.w3.org/1999/xlink" x="0px" y="0px"
    viewBox="0 0 206.3 128.9" style="enable-background:new 0 0 206.3 128.9;" xml:space="preserve">
    <style>
        .st0, .st1 {
        fill: none;
        stroke-width: 0.2;
        }

        .st1 {
            stroke:#000000;
        }
        .st0 {
            stroke:#C0C0C0;
        }
    </style>
    <line class="st0" x1="42.6" y1="90" x2="42.6" y2="88.8"/>
    <line class="st0" x1="42.6" y1="88.8" x2="42.8" y2="88.7"/>
    <line class="st0" x1="42.8" y1="89.9" x2="42.8" y2="88.7"/>
    <line class="st0" x1="42.6" y1="90" x2="42.8" y2="89.9"/>
    <line class="st0" x1="44.6" y1="91.1" x2="42.6" y2="90"/>
    <line class="st0" x1="44.8" y1="91" x2="42.8" y2="89.9"/>
    <line class="st0" x1="44.6" y1="91.1" x2="44.8" y2="91"/>
    <line class="st0" x1="44.6" y1="90" x2="44.6" y2="91.1"/>
    <line class="st0" x1="44.8" y1="89.9" x2="44.8" y2="91"/>
    <line class="st0" x1="44.6" y1="90" x2="44.8" y2="89.9"/>
    <line class="st0" x1="42.6" y1="88.8" x2="44.6" y2="90"/>
    <line class="st0" x1="42.8" y1="88.7" x2="44.8" y2="89.9"/>
    <line class="st0" x1="44.5" y1="82" x2="44.5" y2="80.5"/>
    <line class="st0" x1="44.5" y1="82" x2="44.9" y2="81.8"/>
    <line class="st0" x1="44.9" y1="80.3" x2="44.9" y2="81.8"/>
    <line class="st0" x1="44.5" y1="80.5" x2="44.9" y2="80.3"/>
    <line class="st0" x1="44.5" y1="80.5" x2="42.2" y2="79.2"/>
    <line class="st0" x1="42.6" y1="79" x2="44.9" y2="80.3"/>
    <line class="st0" x1="42.2" y1="79.2" x2="42.6" y2="79"/>
    <line class="st0" x1="42.2" y1="79.2" x2="42.2" y2="80.6"/>
    <line class="st0" x1="42.6" y1="80.4" x2="42.6" y2="79"/>
    <line class="st0" x1="42.2" y1="80.6" x2="42.6" y2="80.4"/>
    <line class="st0" x1="42.2" y1="80.6" x2="44.5" y2="82"/>
    <line class="st0" x1="44.9" y1="81.8" x2="42.6" y2="80.4"/>
    <polygon class="st0" points="51.7,49.9 52.7,49.4 63.4,55.6 62.4,56.1 	"/>
    <path class="st0" d="M44.9,44c0,0.6,0.4,0.8,0.9,0.5c0.5-0.3,0.9-1,0.9-1.6c0-0.6-0.4-0.8-0.9-0.5S44.9,43.4,44.9,44L44.9,44z"/>
    <line class="st0" x1="44.5" y1="94.1" x2="44.5" y2="95.2"/>
    <line class="st0" x1="44.5" y1="94.1" x2="44.6" y2="94.1"/>
    <line class="st0" x1="44.6" y1="95.2" x2="44.6" y2="94.1"/>
    <line class="st0" x1="44.5" y1="95.2" x2="44.6" y2="95.2"/>
    <line class="st0" x1="44.5" y1="95.2" x2="42.6" y2="96.3"/>
    <line class="st0" x1="42.7" y1="96.3" x2="44.6" y2="95.2"/>
    <line class="st0" x1="42.6" y1="96.3" x2="42.7" y2="96.3"/>
    <line class="st0" x1="42.6" y1="96.3" x2="42.6" y2="95.2"/>
    <line class="st0" x1="42.7" y1="95.2" x2="42.7" y2="96.3"/>
    <line class="st0" x1="42.6" y1="95.2" x2="42.7" y2="95.2"/>
    <line class="st0" x1="42.6" y1="95.2" x2="44.5" y2="94.1"/>
    <line class="st0" x1="44.6" y1="94.1" x2="42.7" y2="95.2"/>
    <line class="st0" x1="88.2" y1="70" x2="88.2" y2="68.8"/>
    <line class="st0" x1="88.2" y1="68.8" x2="88.2" y2="68.9"/>
    <line class="st0" x1="88.2" y1="70" x2="88.2" y2="68.9"/>
    <line class="st0" x1="88.2" y1="70" x2="88.2" y2="70"/>
    <line class="st0" x1="86.2" y1="71.1" x2="88.2" y2="70"/>
    <line class="st0" x1="86.3" y1="71.1" x2="88.2" y2="70"/>
    <line class="st0" x1="86.2" y1="71.1" x2="86.3" y2="71.1"/>
    <line class="st0" x1="86.2" y1="69.9" x2="86.2" y2="71.1"/>
    <line class="st0" x1="86.3" y1="70" x2="86.3" y2="71.1"/>
    <line class="st0" x1="86.2" y1="69.9" x2="86.3" y2="70"/>
    <line class="st0" x1="88.2" y1="68.8" x2="86.2" y2="69.9"/>
    <line class="st0" x1="88.2" y1="68.9" x2="86.3" y2="70"/>
    <line class="st0" x1="160.8" y1="73.5" x2="160.8" y2="74.6"/>
    <line class="st0" x1="160.8" y1="73.5" x2="160.8" y2="73.6"/>
    <line class="st0" x1="160.8" y1="74.7" x2="160.8" y2="73.6"/>
    <line class="st0" x1="160.8" y1="74.6" x2="160.8" y2="74.7"/>
    <line class="st0" x1="160.8" y1="74.6" x2="159" y2="73.6"/>
    <line class="st0" x1="158.9" y1="73.6" x2="160.8" y2="74.7"/>
    <line class="st0" x1="159" y1="73.6" x2="158.9" y2="73.6"/>
    <line class="st0" x1="159" y1="73.6" x2="159" y2="72.4"/>
    <line class="st0" x1="158.9" y1="72.5" x2="158.9" y2="73.6"/>
    <line class="st0" x1="159" y1="72.4" x2="158.9" y2="72.5"/>
    <line class="st0" x1="159" y1="72.4" x2="160.8" y2="73.5"/>
    <line class="st0" x1="160.8" y1="73.6" x2="158.9" y2="72.5"/>
    <line class="st0" x1="160.6" y1="63.3" x2="160.6" y2="64.3"/>
    <line class="st0" x1="160.6" y1="63.3" x2="160.4" y2="63.3"/>
    <line class="st0" x1="160.4" y1="64.4" x2="160.4" y2="63.3"/>
    <line class="st0" x1="160.6" y1="64.3" x2="160.4" y2="64.4"/>
    <line class="st0" x1="160.6" y1="64.3" x2="158.6" y2="63.2"/>
    <line class="st0" x1="158.5" y1="63.3" x2="160.4" y2="64.4"/>
    <line class="st0" x1="158.6" y1="63.2" x2="158.5" y2="63.3"/>
    <line class="st0" x1="158.6" y1="63.2" x2="158.6" y2="62.1"/>
    <line class="st0" x1="158.5" y1="62.2" x2="158.5" y2="63.3"/>
    <line class="st0" x1="158.6" y1="62.1" x2="158.5" y2="62.2"/>
    <line class="st0" x1="158.6" y1="62.1" x2="160.6" y2="63.3"/>
    <line class="st0" x1="160.4" y1="63.3" x2="158.5" y2="62.2"/>
    <polygon class="st0" points="72.4,119.7 73.4,120.3 73.4,122.5 72.4,121.9 	"/>
    <polyline class="st0" points="78.4,66.1 79.1,65.1 79.8,64.1 80.5,63.1 81.3,62.1 82.2,61.1 83,60.1 83.9,59.1 84.8,58.2 
        85.7,57.2 86.7,56.2 87.7,55.3 88.7,54.4 89.8,53.5 90.9,52.6 92.1,51.7 93.2,50.8 94.4,50 95.6,49.1 96.9,48.3 98.2,47.5 
        99.5,46.7 100.8,45.9 102.2,45.1 103.6,44.4 105,43.6 106.4,42.9 107.9,42.2 109.4,41.5 110.9,40.8 112.5,40.2 114,39.6 115.6,39 
        117.2,38.4 118.8,37.8 120.5,37.3 122.1,36.7 123.8,36.2 125.5,35.7 127.2,35.2 128.9,34.7 130.7,34.3 132.4,33.9 134.2,33.5 
        135.9,33.1 137.7,32.7 139.6,32.4 141.4,32.1 143.2,31.8 145.1,31.5 146.9,31.2 148.8,30.9 150.6,30.8 151.6,30.6 153.5,30.4 
        155,30.3 	"/>
    <polyline class="st0" points="146.7,88.7 148.3,88.5 150.3,88.3 152.1,88.1 154,87.9 155.1,87.7 	"/>
    <polyline class="st0" points="78.5,124.5 79.2,123.5 79.9,122.5 80.6,121.5 81.4,120.5 82.3,119.5 83.1,118.5 84,117.5 84.9,116.6 
        85.8,115.6 86.8,114.7 87.8,113.7 88.9,112.8 90,111.9 91.1,111 92.2,110.1 93.4,109.3 94.6,108.4 95.8,107.6 97.1,106.8 
        98.4,105.9 99.7,105.1 101,104.4 102.4,103.6 103.8,102.9 105.2,102.1 106.6,101.4 108.1,100.7 109.6,100 111.1,99.3 112.6,98.7 
        114.2,98.1 115.8,97.4 117.4,96.8 119,96.3 120.7,95.7 122.3,95.2 124,94.6 125.7,94.1 127.4,93.7 129.1,93.2 130.8,92.7 
        132.6,92.3 134.4,91.9 136.1,91.5 137.9,91.1 139.8,90.8 141.6,90.5 143.4,90.2 145.2,89.9 	"/>
    <polyline class="st0" points="48.8,56.1 48.8,54.5 49.1,52.8 49.4,51.1 49.9,49.4 50.4,47.6 51.1,45.9 51.9,44.2 52.7,42.5 
        53.7,40.8 54.7,39.2 55.8,37.7 57,36.2 58.2,34.9 59.5,33.6 60.8,32.5 62.1,31.5 63.5,30.5 64.8,29.8 66.2,29.1 67.5,28.6 
        68.8,28.3 70,28.1 71.2,28.1 72.4,28.2 73.5,28.5 74.5,28.9 75.4,29.4 76.3,30.1 77.1,31 77.7,31.9 78.3,33 78.7,34.2 79.1,35.6 
        79.3,37 79.4,38.4 79.4,40 79.4,41.5 	"/>
    <polyline class="st0" points="46.3,53.8 46.3,52.2 46.3,50.6 46.6,49 47,47.2 47.6,45.5 48.3,43.7 49.1,42 50,40.3 51,38.7 
        52,37.1 53.2,35.6 54.3,34.1 55.5,32.8 56.8,31.5 58.1,30.4 59.4,29.3 60.8,28.4 62.1,27.6 63.4,27 64.8,26.5 66.1,26.1 67.3,25.8 
        68.6,25.8 69.8,25.8 70.9,26 71.9,26.4 72.9,26.9 73.8,27.5 74.6,28.3 75.4,29.2 76,30.2 76.3,30.9 76.6,32.2 76.8,33.7 76.8,35.3 
        76.8,36.8 76.8,38.3 	"/>
    <line class="st1" x1="166.6" y1="23.2" x2="166.7" y2="82.9"/>
    <line class="st1" x1="133" y1="63.4" x2="132.9" y2="3.7"/>
    <line class="st1" x1="129.6" y1="5.6" x2="129.7" y2="65.3"/>
    <line class="st1" x1="124" y1="62" x2="123.8" y2="2.2"/>
    <line class="st1" x1="99.4" y1="76.5" x2="99.3" y2="16.7"/>
    <line class="st1" x1="92.2" y1="12.6" x2="92.3" y2="72.4"/>
    <line class="st1" x1="39.2" y1="103" x2="39.2" y2="43.3"/>
    <line class="st1" x1="102.9" y1="74.5" x2="102.7" y2="14.7"/>
    <line class="st1" x1="116.6" y1="66.4" x2="116.3" y2="6.6"/>
    <polyline class="st1" points="47.4,55.4 47.4,53.7 47.7,52 48,50.3 48.5,48.6 49.1,46.9 49.7,45.1 50.5,43.4 51.4,41.7 52.3,40 
        53.3,38.4 54.4,36.9 55.6,35.5 56.8,34.1 58.1,32.8 59.4,31.7 60.7,30.6 62,29.7 63.4,29 64.7,28.3 66.1,27.8 67.4,27.5 68.6,27.3 
        69.8,27.3 71,27.4 72.1,27.6 73.1,28.1 74,28.6 74.9,29.3 75.7,30.2 76.3,31.1 76.9,32.2 77.3,33.4 77.7,34.8 77.9,36.2 78,37.7 	
        "/>
    <polyline class="st1" points="47.4,55.4 47.4,54.4 47.4,52.8 47.4,51.3 47.6,49.6 48.1,47.8 48.7,46.1 49.4,44.4 50.2,42.7 
        51.1,41 52.1,39.3 53.1,37.7 54.3,36.2 55.4,34.8 56.7,33.4 57.9,32.2 59.2,31 60.5,30 61.9,29.1 63.2,28.3 64.6,27.6 65.9,27.1 
        67.2,26.7 68.5,26.5 69.7,26.4 70.9,26.5 72,26.7 73.1,27 74.1,27.5 75,28.1 75.8,28.9 76.5,29.8 77.1,30.9 77.5,31.6 77.8,32.9 
        78,34.4 78,35.9 78,37.7 	"/>
    <line class="st1" x1="154.9" y1="29.7" x2="155.2" y2="89.5"/>
    <line class="st1" x1="78.2" y1="125.7" x2="78.2" y2="65.8"/>
    <polyline class="st1" points="141.3,64.4 137.9,66.3 133,63.4 129.7,65.3 124,62 99.4,76.5 92.3,72.4 81,78.9 76.3,76.1 45.7,93.9 
        50.4,96.6 39.2,103 49.1,108.8 47.1,110 	"/>
    <polyline class="st1" points="62.3,118.3 63.9,117.4 78.2,125.7 78.5,125.3 79.2,124.3 79.9,123.3 80.6,122.3 81.4,121.3 
        82.3,120.3 83.1,119.3 84,118.3 84.9,117.4 85.8,116.4 86.8,115.4 87.8,114.5 88.9,113.6 90,112.7 91.1,111.8 92.2,110.9 93.4,110 
        94.6,109.2 95.8,108.3 97.1,107.5 98.4,106.7 99.7,105.9 101,105.1 102.4,104.4 103.8,103.6 105.2,102.9 106.6,102.1 108.1,101.4 
        109.6,100.7 111.1,100.1 112.6,99.4 114.2,98.8 115.8,98.2 117.4,97.6 119,97 120.7,96.4 122.3,95.9 124,95.4 125.7,94.9 
        127.4,94.4 129.1,93.9 130.8,93.5 132.6,93 134.4,92.6 136.1,92.2 137.9,91.9 139.8,91.5 141.6,91.2 143.4,90.9 145.2,90.7 
        146.7,90.4 148.3,90.2 150.3,90 152.1,89.8 154,89.6 155.1,89.5 155.2,89.5 166.7,82.9 152.8,74.9 155.8,73.1 	"/>
    <polyline class="st1" points="154.9,29.7 166.6,23.2 132.9,3.7 129.6,5.6 123.8,2.2 99.3,16.7 92.2,12.6 39.2,43.3 78.2,65.8 
        78.4,65.6 79.1,64.5 79.8,63.5 80.5,62.5 81.3,61.5 82.1,60.5 83,59.5 83.9,58.5 84.8,57.6 85.7,56.6 86.7,55.7 87.7,54.7 
        88.7,53.8 89.8,52.9 90.9,52 92.1,51.1 93.2,50.2 94.4,49.4 95.6,48.5 96.9,47.7 98.2,46.9 99.5,46.1 100.8,45.3 102.2,44.5 
        103.6,43.8 105,43.1 106.4,42.3 107.9,41.6 109.4,41 110.9,40.3 112.5,39.6 114,39 115.6,38.4 117.2,37.8 118.8,37.2 120.5,36.7 
        122.1,36.1 123.8,35.6 125.5,35.1 127.2,34.6 128.9,34.1 130.7,33.7 132.4,33.3 134.2,32.9 135.9,32.5 137.7,32.1 139.6,31.8 
        141.4,31.5 143.2,31.2 145.1,30.9 146.9,30.6 148.8,30.3 150.6,30.1 151.5,30 153.5,29.8 154.5,29.7 154.9,29.7 	"/>
    <polyline class="st1" points="50.4,96.6 50.4,57.1 50.4,55.4 50.6,53.8 51,52 51.5,50.3 52,48.6 52.7,46.8 53.5,45.1 54.3,43.4 
        55.3,41.8 56.3,40.2 57.4,38.6 58.6,37.2 59.8,35.8 61.1,34.5 62.4,33.4 63.7,32.4 65,31.5 66.4,30.7 67.7,30.1 69.1,29.6 
        70.4,29.2 71.6,29.1 72.8,29 74,29.1 75.1,29.4 76.1,29.8 77.1,30.4 77.9,31.1 78.7,31.9 79.3,32.9 79.9,34 80.4,35.2 80.7,36.5 
        81,37.9 81,39.5 81,78.9 	"/>
    <polyline class="st1" points="76.3,76.1 76.2,36.7 76.3,34.9 76.2,33.4 76.1,31.9 75.7,30.6 75.4,29.9 74.8,28.8 74.1,27.9 
        73.3,27.1 72.3,26.5 71.3,26 70.3,25.7 69.2,25.5 68,25.4 66.7,25.5 65.5,25.7 64.2,26.1 62.8,26.6 61.5,27.3 60.1,28.1 58.8,29 
        57.5,30 56.2,31.2 54.9,32.4 53.7,33.8 52.5,35.2 51.4,36.7 50.3,38.3 49.4,40 48.5,41.7 47.7,43.4 47,45.1 46.4,46.8 45.9,48.6 
        45.7,50.3 45.6,51.8 45.6,53.4 45.7,54.4 45.7,93.9 	"/>
    <polyline class="st1" points="152.8,74.9 152.6,31.4 137.9,22.9 137.9,66.3 	"/>
    <polyline class="st1" points="49.1,108.8 49,65.5 63.9,74.2 63.9,117.4 	"/>
</svg>