<svg version="1.1" xmlns="http://www.w3.org/2000/svg" xmlns:xlink="http://www.w3.org/1999/xlink" x="0px" y="0px" viewBox="0 0 215.1 134.4" style="enable-background:new 0 0 215.1 134.4;" xml:space="preserve">
    <style>
        .st0, .st1 {
        fill: none;
        stroke-width: 0.2;
        }

        .st1 {
            stroke:#000000;
        }
        .st0 {
            stroke:#C0C0C0;
        }
    </style>
    <line class="st0" x1="138.1" y1="59.4" x2="138.3" y2="59.3"/>
    <path class="st0" d="M62.8,95.2c0.3,0.2,0.6,0.7,0.6,1s-0.3,0.5-0.6,0.3c-0.3-0.2-0.6-0.7-0.6-1C62.2,95.1,62.5,95,62.8,95.2
        L62.8,95.2z"/>
    <path class="st0" d="M112.8,41.3c0-0.4-0.3-0.8-0.7-1s-0.7,0-0.7,0.4c0,0.4,0.3,0.8,0.7,1S112.8,41.7,112.8,41.3L112.8,41.3z"/>
    <path class="st0" d="M114.3,41.8c0-0.4-0.3-0.8-0.7-1s-0.7,0-0.7,0.4c0,0.4,0.3,0.8,0.7,1C114,42.4,114.3,42.2,114.3,41.8
        L114.3,41.8z"/>
    <path class="st0" d="M77,49.6c0,0.4,0.3,0.5,0.6,0.3s0.6-0.7,0.6-1c0-0.4-0.3-0.5-0.6-0.3S77,49.2,77,49.6L77,49.6z"/>
    <path class="st0" d="M78.4,48.8c0,0.4,0.3,0.5,0.6,0.3s0.6-0.7,0.6-1c0-0.4-0.3-0.5-0.6-0.3C78.6,47.9,78.4,48.4,78.4,48.8
        L78.4,48.8z"/>
    <path class="st0" d="M79.7,48.1c0,0.4,0.3,0.5,0.6,0.3s0.6-0.7,0.6-1c0-0.4-0.3-0.5-0.6-0.3S79.7,47.7,79.7,48.1L79.7,48.1z"/>
    <path class="st0" d="M81,47.4c0,0.4,0.3,0.5,0.6,0.3s0.6-0.7,0.6-1s-0.3-0.5-0.6-0.3S81,47,81,47.4L81,47.4z"/>
    <line class="st0" x1="46.1" y1="88.3" x2="46.9" y2="88.7"/>
    <line class="st0" x1="46.1" y1="88.3" x2="46.8" y2="88.7"/>
    <line class="st0" x1="46" y1="88.4" x2="46.7" y2="88.8"/>
    <line class="st0" x1="46" y1="88.5" x2="46.7" y2="88.9"/>
    <line class="st0" x1="46" y1="88.5" x2="46.7" y2="88.9"/>
    <line class="st0" x1="46.1" y1="88.5" x2="46.8" y2="88.9"/>
    <line class="st0" x1="46.1" y1="88.4" x2="46.9" y2="88.9"/>
    <line class="st0" x1="46.1" y1="88.3" x2="46.9" y2="88.8"/>
    <path class="st0" d="M46.7,88.9C46.7,88.9,46.7,89,46.7,88.9c0.1,0,0.2,0,0.2-0.1c0-0.1,0-0.1-0.1-0.1
        C46.7,88.7,46.7,88.8,46.7,88.9L46.7,88.9z"/>
    <path class="st0" d="M46,88.5C46,88.5,46,88.5,46,88.5c0.1,0,0.2,0,0.2-0.1c0-0.1,0-0.1-0.1-0.1S46,88.4,46,88.5L46,88.5z"/>
    <line class="st0" x1="160.5" y1="80.2" x2="160.5" y2="82.4"/>
    <line class="st0" x1="160.5" y1="80.2" x2="160.5" y2="82.5"/>
    <line class="st0" x1="160.3" y1="80.3" x2="160.3" y2="82.5"/>
    <line class="st0" x1="160.2" y1="80.2" x2="160.2" y2="82.5"/>
    <line class="st0" x1="160.1" y1="80.2" x2="160.1" y2="82.4"/>
    <line class="st0" x1="160.2" y1="80.1" x2="160.2" y2="82.3"/>
    <line class="st0" x1="160.3" y1="80" x2="160.3" y2="82.3"/>
    <line class="st0" x1="160.5" y1="80.1" x2="160.5" y2="82.3"/>
    <path class="st0" d="M160.5,82.3c0.1,0,0.1,0.1,0,0.2s-0.2,0-0.3,0s-0.1-0.1,0-0.2S160.4,82.3,160.5,82.3L160.5,82.3z"/>
    <path class="st0" d="M160.2,80.2c0.1,0,0.2,0,0.3,0s0.1-0.1,0-0.2s-0.2,0-0.3,0S160.1,80.2,160.2,80.2L160.2,80.2z"/>
    <line class="st0" x1="161.6" y1="80.6" x2="161.6" y2="82.9"/>
    <line class="st0" x1="161.6" y1="80.7" x2="161.6" y2="83"/>
    <line class="st0" x1="161.4" y1="80.8" x2="161.4" y2="83"/>
    <line class="st0" x1="161.3" y1="80.7" x2="161.3" y2="83"/>
    <line class="st0" x1="161.3" y1="80.6" x2="161.3" y2="82.9"/>
    <line class="st0" x1="161.3" y1="80.6" x2="161.3" y2="82.8"/>
    <line class="st0" x1="161.4" y1="80.5" x2="161.4" y2="82.8"/>
    <line class="st0" x1="161.6" y1="80.6" x2="161.6" y2="82.8"/>
    <path class="st0" d="M161.6,82.8c0.1,0,0.1,0.1,0,0.2s-0.2,0-0.3,0c-0.1,0-0.1-0.1,0-0.2C161.4,82.8,161.5,82.8,161.6,82.8
        L161.6,82.8z"/>
    <path class="st0" d="M161.3,80.7c0.1,0,0.2,0,0.3,0s0.1-0.1,0-0.2s-0.2,0-0.3,0C161.2,80.6,161.2,80.7,161.3,80.7L161.3,80.7z"/>
    <polyline class="st0" points="42.2,104.1 50.3,87.7 42.6,84.5 49.9,70.2 42.4,64.7 50,53.2 44.5,48.7 	"/>
    <polyline class="st0" points="45.2,42.3 50.4,55.8 45,62.2 50.4,76.7 44.9,81.7 50.6,91.2 45,95.8 	"/>
    <polyline class="st0" points="82,83 78.3,80.8 74.6,78.7 70.9,76.6 67.2,74.4 63.5,72.3 	"/>
    <polyline class="st0" points="63.4,97.2 67.2,99.4 70.9,101.6 74.5,103.7 78.2,105.8 81.9,108 85.6,110.1 89.3,112.3 	"/>
    <polyline class="st0" points="92.1,111.3 95.8,109.1 99.5,107 103.2,104.9 106.9,102.7 110.6,100.6 	"/>
    <polyline class="st0" points="111.4,75.1 107.7,77.2 104,79.4 100.4,81.5 96.6,83.6 92.9,85.8 	"/>
    <polyline class="st0" points="151.3,53.2 147.6,55.3 143.9,57.4 140.2,59.6 136.5,61.7 132.8,63.8 129.1,66 125.4,68.1 121.7,70.2 
        118,72.4 	"/>
    <polyline class="st0" points="124.4,93.7 128.4,91.4 132.1,89.3 135.8,87.2 139.5,85 143.2,82.9 146.9,80.8 150.6,78.6 	"/>
    <polyline class="st0" points="153.2,76 157,73.9 160.6,71.8 164.4,69.6 168,67.5 	"/>
    <polyline class="st0" points="168.7,42 165,44.2 161.3,46.2 157.6,48.4 153.9,50.5 	"/>
    <polyline class="st0" points="117.9,44.4 122.8,46.5 127,48.3 131.3,50.1 135.5,51.8 	"/>
    <polyline class="st0" points="136.8,29.3 132.5,27.5 128.3,25.7 124.1,24 119.8,22.2 115.6,20.4 111.3,18.7 	"/>
    <polyline class="st0" points="108.2,18.1 104.5,20.3 100.8,22.4 97.1,24.5 93.4,26.6 89.7,28.8 86,30.9 82.3,33 78.6,35.2 
        74.9,37.3 71.2,39.4 67.5,41.6 63.8,43.7 60,45.8 56.3,48 52.7,50.1 48.9,52.3 45.2,54.4 	"/>
    <polyline class="st0" points="45.5,77.3 49.2,75.1 52.9,73 56.6,70.9 60.3,68.7 64,66.6 67.7,64.5 71.4,62.3 75.1,60.2 78.8,58.1 
        82.5,55.9 86.2,53.8 89.9,51.7 93.6,49.5 97.3,47.4 101,45.3 104.7,43.1 108.4,41 	"/>
    <polyline class="st0" points="157.3,18.2 156.4,17.8 156.5,63.1 157.4,63.5 157.3,18.2 	"/>
    <line class="st1" x1="51.1" y1="100.6" x2="50.9" y2="44.7"/>
    <line class="st1" x1="44.5" y1="96.7" x2="44.3" y2="40.8"/>
    <line class="st1" x1="108.9" y1="59.5" x2="109.1" y2="3.6"/>
    <line class="st1" x1="170.2" y1="73.9" x2="170" y2="29.2"/>
    <line class="st1" x1="150.5" y1="96.5" x2="150.4" y2="40.5"/>
    <line class="st1" x1="151.3" y1="97" x2="151.4" y2="41"/>
    <line class="st1" x1="114.8" y1="117.9" x2="114.8" y2="62"/>
    <line class="st1" x1="113.9" y1="117.4" x2="113.9" y2="61.4"/>
    <line class="st1" x1="89.9" y1="131.3" x2="89.9" y2="75.3"/>
    <line class="st1" x1="170.2" y1="73.9" x2="170.1" y2="85.1"/>
    <line class="st1" x1="169.1" y1="28.8" x2="169.5" y2="73.6"/>
    <line class="st1" x1="138.2" y1="60.6" x2="138.2" y2="15.8"/>
    <line class="st1" x1="138.2" y1="15.8" x2="138.2" y2="14.6"/>
    <line class="st1" x1="169.1" y1="28.8" x2="169.1" y2="27.5"/>
    <line class="st1" x1="113.4" y1="12.7" x2="113.2" y2="12.8"/>
    <line class="st1" x1="112.9" y1="12.2" x2="112.7" y2="12.4"/>
    <line class="st1" x1="112.3" y1="12.2" x2="112.2" y2="12.4"/>
    <line class="st1" x1="112.1" y1="12.7" x2="112" y2="12.8"/>
    <line class="st1" x1="112.3" y1="13.3" x2="112.2" y2="13.4"/>
    <line class="st1" x1="112.9" y1="13.7" x2="112.7" y2="13.9"/>
    <line class="st1" x1="113.4" y1="13.7" x2="113.2" y2="13.9"/>
    <line class="st1" x1="113.6" y1="13.3" x2="113.5" y2="13.4"/>
    <path class="st1" d="M112,12.8c0,0.4,0.3,0.9,0.7,1.1c0.4,0.2,0.7,0,0.7-0.4c0-0.4-0.3-0.9-0.7-1.1C112.3,12.2,112,12.4,112,12.8
        L112,12.8z"/>
    <path class="st1" d="M112.1,12.7c0,0.4,0.3,0.9,0.7,1.1c0.4,0.2,0.7,0,0.7-0.4c0-0.4-0.3-0.9-0.7-1.1
        C112.5,12.1,112.1,12.3,112.1,12.7L112.1,12.7z"/>
    <polyline class="st1" points="170,29.2 150.4,40.5 151.4,41 114.8,62 113.9,61.4 89.9,75.3 43.8,48.7 50.9,44.7 44.3,40.8 
        109.1,3.6 138.2,15.8 169.1,28.8 170,29.2 "/>
    <polyline class="st1" points="42.4,105.5 51.1,100.6 44.5,96.7 108.9,59.5 170.1,85.1 150.5,96.5 151.3,97 114.8,117.9 
        113.9,117.4 89.9,131.3 60.7,114.4 60.8,70 43.7,60.3 43.8,48.7 "/>
    <polyline class="st1" points="174.8,69.3 143.6,56.4 138.2,60.6 169.5,73.6 174.8,69.3 	"/>
    <polyline class="st1" points="143.6,56.4 143.6,55.6 174.8,68.5 174.8,69.3 "/>
    <polyline class="st1" points="174.8,68.5 174.4,68.8 143.3,55.9 143.6,55.6 "/>
    <polyline class="st1" points="174.4,68.8 174.5,23.5 143.2,10.6 143.3,55.9 "/>
    <polyline class="st1" points="174.5,23.5 169.1,27.5 138.2,14.6 143.2,10.6 "/>
</svg>